<?xml version="1.0" standalone="no"?>
<!DOCTYPE svg PUBLIC "-//W3C//DTD SVG 20010904//EN"
 "http://www.w3.org/TR/2001/REC-SVG-20010904/DTD/svg10.dtd">
<svg version="1.0" xmlns="http://www.w3.org/2000/svg"
 width="1536.000000pt" height="1024.000000pt" viewBox="0 0 1536.000000 1024.000000"
 preserveAspectRatio="xMidYMid meet">

<g transform="translate(0.000000,1024.000000) scale(0.100000,-0.100000)"
fill="#000000" stroke="none">
<path d="M3965 9788 c-77 -14 -185 -71 -241 -126 -92 -90 -141 -222 -132 -351
2 -34 6 -62 9 -64 2 -3 59 -7 127 -10 l122 -7 0 78 c0 91 21 144 71 186 91 77
207 75 295 -6 57 -52 78 -109 72 -191 -8 -92 -36 -137 -177 -279 -86 -88 -133
-144 -149 -178 -26 -55 -50 -219 -38 -263 l6 -27 119 0 118 0 7 88 c10 124 28
155 154 280 172 169 222 263 222 416 0 143 -43 248 -137 337 -108 102 -284
148 -448 117z m248 -20 c26 -7 47 -16 47 -20 0 -5 4 -7 8 -4 5 3 31 -6 58 -20
70 -37 164 -139 150 -163 -4 -5 -1 -13 5 -17 8 -5 9 -3 4 6 -5 9 -4 11 3 6 7
-4 21 -39 33 -77 32 -107 25 -229 -21 -327 -18 -40 -47 -84 -63 -98 -15 -13
-25 -24 -21 -24 5 0 -9 -18 -31 -40 -21 -21 -43 -36 -49 -33 -6 3 -8 2 -3 -2
4 -5 -22 -39 -58 -76 -80 -83 -105 -136 -112 -240 l-6 -79 -108 0 -109 0 1 78
c0 96 15 173 42 220 27 47 136 162 154 162 7 0 13 4 13 9 0 5 21 31 46 57 25
27 60 78 77 114 65 135 21 277 -105 335 -26 12 -46 24 -44 26 3 2 -26 2 -62
-1 -144 -11 -221 -96 -224 -248 l-1 -74 -45 6 c-25 3 -77 6 -116 7 -49 0 -65
3 -51 9 16 7 17 9 3 9 -24 1 -31 33 -23 104 10 92 23 136 58 195 23 38 36 51
48 47 10 -3 20 -1 24 4 4 7 -1 8 -11 4 -34 -13 -7 22 53 68 59 45 151 82 228
92 45 6 154 -2 208 -15z"/>
<path d="M4050 8771 c0 -6 4 -13 10 -16 6 -3 7 1 4 9 -7 18 -14 21 -14 7z"/>
<path d="M10250 9789 c-108 -16 -183 -54 -258 -130 -71 -72 -122 -205 -122
-315 0 -30 3 -34 33 -38 17 -3 62 -10 98 -16 109 -17 106 -18 114 48 9 76 34
130 78 169 92 81 236 60 307 -44 36 -52 40 -151 10 -221 -22 -51 -47 -78 -197
-209 -102 -90 -125 -141 -131 -290 l-5 -113 34 0 c19 0 71 -3 115 -6 l82 -7 4
84 c5 124 26 159 160 272 176 148 224 239 216 412 -3 82 -8 101 -41 168 -63
128 -170 205 -323 232 -88 16 -96 16 -174 4z"/>
<path d="M7410 9488 c-23 -13 -25 -20 -31 -108 -4 -52 -7 -187 -8 -298 l-1
-204 -607 7 c-335 4 -624 8 -643 10 -19 1 -45 -1 -57 -6 -35 -13 -550 -387
-557 -404 -3 -8 -3 -21 0 -27 6 -15 21 -26 493 -362 l64 -46 186 -2 c102 0
211 -2 241 -3 30 -1 238 -3 463 -3 l408 -2 -3 -152 -3 -153 -336 -5 c-264 -4
-339 -8 -352 -19 -15 -12 -17 -53 -17 -400 0 -316 3 -391 14 -406 13 -19 29
-19 360 -16 l346 3 0 -60 c0 -32 -3 -107 -7 -167 l-6 -108 -131 7 c-72 4 -266
13 -431 21 -165 8 -350 18 -412 21 l-112 7 -172 -113 c-163 -107 -302 -203
-342 -236 -10 -8 -17 -21 -15 -29 2 -8 75 -76 164 -152 88 -76 192 -166 232
-200 40 -35 82 -65 95 -67 12 -3 119 -10 237 -16 118 -6 301 -15 405 -20 105
-5 258 -12 340 -16 l150 -7 -3 -126 c-2 -69 -4 -127 -5 -128 -1 -1 -40 3 -87
9 -359 46 -734 -173 -922 -537 -55 -108 -99 -230 -167 -470 -86 -308 -128
-417 -249 -662 -53 -108 -93 -203 -100 -238 -27 -132 -8 -249 53 -329 l34 -45
-32 -19 c-62 -37 -127 -104 -183 -189 -55 -82 -133 -249 -134 -285 0 -10 -4
-18 -9 -18 -10 0 -19 155 -27 500 l-6 265 53 25 c48 22 54 29 57 59 5 45 -59
517 -104 769 -75 427 -159 611 -332 726 -62 41 -179 95 -242 111 -40 10 -73
42 -67 65 13 49 -22 105 -91 146 -4 2 -31 118 -29 120 70 32 140 92 151 131 9
29 -10 63 -34 63 -21 0 -26 10 -11 25 17 18 59 134 95 258 36 126 60 256 71
388 7 74 8 76 42 95 20 10 48 36 62 58 23 35 26 50 26 126 0 85 0 86 30 106
16 10 40 39 53 64 19 37 23 56 19 103 -5 61 -41 135 -78 161 -17 12 -19 17 -9
36 16 30 14 121 -4 163 -22 55 -101 133 -152 153 -33 13 -61 15 -109 11 -49
-5 -65 -3 -65 7 0 7 -15 30 -34 52 -52 61 -134 80 -190 46 l-30 -18 -32 36
c-18 20 -57 49 -86 66 -47 26 -62 29 -138 29 -106 -1 -176 -30 -250 -104 -49
-50 -52 -50 -75 -35 -13 9 -51 18 -83 21 -122 11 -227 -54 -278 -172 -23 -52
-33 -65 -50 -65 -38 0 -146 -81 -178 -133 -37 -60 -45 -135 -22 -191 16 -37
15 -39 -8 -57 -76 -60 -76 -228 -1 -299 23 -21 23 -25 10 -51 -31 -59 -8 -173
45 -224 23 -22 30 -38 30 -65 0 -56 27 -130 66 -183 39 -54 115 -107 152 -107
l25 0 -7 -97 c-8 -116 -38 -272 -67 -349 -24 -65 -72 -130 -117 -161 -53 -35
-238 -91 -322 -96 -86 -6 -232 -46 -305 -83 -27 -14 -85 -39 -128 -56 -102
-39 -212 -114 -281 -190 -102 -112 -189 -321 -202 -482 -8 -107 -8 -107 -80
-161 -134 -101 -262 -300 -318 -496 -41 -145 -83 -411 -87 -560 -2 -65 -3 -67
-35 -83 -70 -33 -120 -139 -145 -306 -16 -109 -6 -482 15 -610 21 -122 51
-230 77 -282 29 -56 110 -140 162 -168 25 -14 57 -44 80 -77 50 -70 152 -145
248 -182 83 -33 253 -56 326 -45 l42 6 -9 -33 c-16 -55 -12 -96 13 -124 l22
-26 -18 -232 c-10 -128 -20 -256 -23 -284 l-5 -53 -677 -2 -677 -3 0 -25 0
-25 896 -3 896 -2 6 -41 c7 -54 68 -118 146 -153 135 -60 644 -116 1069 -116
260 0 493 37 732 116 112 37 150 62 187 123 18 30 34 58 35 62 2 5 66 10 143
12 133 4 142 3 187 -20 52 -27 139 -53 181 -53 36 0 34 -9 -9 -51 -20 -18 -65
-67 -99 -107 -58 -67 -63 -76 -63 -121 0 -27 4 -54 8 -61 6 -9 208 -13 860
-17 l853 -4 28 -28 c33 -34 96 -52 142 -41 43 9 85 37 92 60 3 11 11 17 18 15
7 -2 393 -6 858 -9 675 -5 848 -4 856 6 6 7 11 35 11 63 l0 50 -116 112 c-116
111 -117 111 -87 118 90 19 155 40 195 62 l45 25 2411 -2 c2070 -1 2412 1
2423 13 15 19 5 44 -22 51 -12 3 -138 6 -280 6 l-257 0 6 42 c3 24 7 48 9 54
2 6 34 22 70 35 97 34 100 41 86 194 -17 192 -16 212 13 219 42 11 173 105
215 155 58 69 100 165 108 243 l6 64 70 18 c113 29 257 107 312 168 98 110
142 244 131 408 -16 234 -95 582 -231 1015 -30 94 -81 262 -115 374 -95 317
-191 542 -283 668 -59 80 -156 159 -254 208 -43 21 -92 51 -109 65 -71 61
-217 106 -370 115 -40 2 -132 21 -221 46 -151 43 -152 43 -169 80 -21 49 -57
82 -119 111 -50 23 -50 24 -62 88 -14 75 -19 267 -8 323 7 36 9 37 49 37 93 0
195 94 237 219 39 114 23 263 -33 309 -13 10 -14 20 -8 45 5 18 17 97 26 177
33 295 -9 463 -150 586 -48 42 -135 84 -174 84 -10 0 -38 19 -62 41 -91 83
-281 148 -437 149 -75 0 -194 -19 -278 -46 -27 -8 -131 -55 -230 -104 -99 -49
-201 -96 -228 -105 -84 -29 -101 -99 -40 -165 l36 -41 -30 -32 c-36 -37 -63
-88 -63 -115 0 -35 34 -65 81 -71 l44 -6 -3 -115 c-4 -130 14 -654 24 -686 4
-17 -33 -57 -213 -230 -120 -115 -274 -256 -343 -313 -250 -206 -347 -287
-438 -369 -109 -99 -111 -99 -201 -16 -78 72 -118 150 -131 259 -15 129 -14
186 6 261 l18 71 47 -5 c101 -9 198 48 246 146 24 48 28 70 28 137 0 70 -4 87
-31 140 -30 58 -31 62 -16 90 55 104 44 297 -27 465 l-28 68 53 56 c78 83 106
186 85 311 -22 127 -92 219 -206 272 -56 26 -69 28 -185 28 -107 0 -132 -3
-171 -21 -85 -40 -154 -117 -172 -195 l-7 -26 -167 -6 c-193 -6 -284 -26 -396
-84 -73 -39 -180 -136 -192 -174 -4 -13 -27 -45 -50 -71 -115 -128 -155 -341
-95 -503 19 -51 24 -90 30 -265 5 -114 15 -242 24 -287 66 -335 221 -540 464
-613 l72 -22 0 -36 0 -37 -147 -50 c-81 -27 -186 -69 -233 -92 -110 -54 -233
-152 -299 -239 -86 -114 -163 -291 -186 -429 l-7 -40 -35 70 c-92 181 -135
318 -197 631 -70 347 -158 534 -333 713 l-83 84 0 210 0 210 275 -7 275 -8 10
26 c6 16 10 173 11 378 0 287 -2 353 -14 365 -10 10 -81 18 -277 29 -145 8
-267 17 -270 20 -3 3 -6 84 -8 179 l-4 174 119 3 c65 2 370 4 677 6 375 2 566
7 580 14 23 12 470 325 529 371 20 16 37 36 37 46 0 17 -154 129 -455 334
l-130 88 -677 -7 -678 -7 0 151 0 152 371 0 c236 0 377 4 390 10 18 10 19 25
19 398 0 213 -4 393 -9 401 -12 19 -33 20 -430 20 l-343 1 3 295 c3 252 2 296
-11 309 -22 20 -433 33 -470 14z m-330 -673 c465 -3 883 -8 930 -10 47 -3 199
-5 338 -5 l252 0 0 -345 0 -345 -1097 2 c-604 1 -1172 4 -1263 7 l-165 6 -165
119 c-91 66 -198 142 -237 170 -40 28 -73 53 -73 56 0 3 75 60 167 125 92 66
197 142 232 169 82 61 92 65 171 61 36 -2 445 -6 910 -10z m5048 -1772 c-21
-2 -57 -2 -80 0 -24 2 -7 4 37 4 44 0 63 -2 43 -4z m-145 -10 c-7 -2 -19 -2
-25 0 -7 3 -2 5 12 5 14 0 19 -2 13 -5z m-50 -10 c-7 -2 -19 -2 -25 0 -7 3 -2
5 12 5 14 0 19 -2 13 -5z m395 -16 c61 -18 98 -37 154 -78 44 -34 95 -62 129
-72 104 -31 169 -95 215 -208 21 -51 27 -86 32 -174 2 -60 1 -107 -3 -102 -5
4 -7 35 -6 70 5 190 -79 346 -216 397 -30 11 -60 20 -67 20 -12 0 -93 57 -125
88 -19 18 -50 30 -146 58 -44 12 -73 23 -64 23 9 1 53 -9 97 -22z m-498 -11
c-36 -13 -84 -33 -107 -45 -24 -12 -43 -19 -43 -16 0 13 167 84 200 84 8 0
-14 -11 -50 -23z m-7604 -87 c12 -20 89 -49 132 -49 23 0 58 6 76 14 33 14 35
13 62 -15 15 -16 43 -34 62 -40 43 -14 138 -7 179 14 27 14 32 14 51 1 37 -25
135 -36 181 -20 22 7 43 11 46 8 10 -10 5 -133 -9 -235 -8 -56 -20 -158 -26
-227 -17 -198 -56 -362 -131 -556 l-40 -101 -76 -11 c-123 -19 -233 -80 -368
-204 l-57 -52 -41 12 c-69 19 -193 89 -252 144 -60 54 -148 180 -189 268 -14
30 -29 81 -32 113 -7 60 -21 77 -64 77 -29 0 -111 79 -143 138 -14 26 -29 67
-33 89 -16 101 51 223 123 223 39 0 78 -35 88 -79 17 -79 106 -98 140 -30 17
33 20 116 5 155 -9 24 -7 31 19 58 40 41 61 104 61 182 l0 64 40 -6 c49 -8
116 15 150 51 26 28 35 30 46 14z m7399 -9 c-3 -5 -12 -10 -18 -10 -7 0 -6 4
3 10 19 12 23 12 15 0z m-35 -15 c0 -6 -97 -55 -107 -55 -4 1 17 14 47 30 61
32 60 32 60 25z m-135 -65 c-11 -5 -37 -16 -57 -24 -21 -8 -38 -19 -38 -24 0
-13 30 -45 68 -71 17 -12 32 -27 32 -33 0 -7 -8 -4 -17 5 -10 9 -36 32 -58 51
-34 29 -38 38 -29 53 6 10 31 26 55 35 46 18 79 23 44 8z m-55 -229 c-28 -29
-50 -57 -50 -61 0 -10 37 -19 128 -30 l67 -9 -80 5 c-98 5 -125 12 -125 31 0
14 100 127 106 120 2 -2 -19 -27 -46 -56z m725 29 c9 -14 -34 -68 -73 -92 -18
-11 -39 -27 -47 -35 -8 -8 -15 -10 -15 -4 0 6 12 18 28 28 15 9 44 32 65 52
60 57 48 66 -36 27 -29 -13 -63 -27 -77 -30 -15 -3 -11 0 10 9 19 9 51 24 70
35 39 22 66 25 75 10z m192 4 c-3 -3 -12 -4 -19 -1 -8 3 -5 6 6 6 11 1 17 -2
13 -5z m-40 -48 c-39 -59 -148 -107 -237 -105 -23 0 -8 6 43 15 96 17 146 42
178 88 26 39 41 41 16 2z m78 -22 c17 -60 76 -134 127 -160 31 -16 33 -13 17
18 -6 11 -8 22 -6 25 3 3 15 -13 27 -36 11 -23 17 -41 13 -41 -5 0 -31 13 -59
29 -71 41 -117 106 -138 194 -12 49 2 28 19 -29z m-495 -20 c-47 -13 -92 -23
-100 -23 -21 1 140 47 165 47 11 0 -18 -10 -65 -24z m-5170 -14 c113 -5 399
-19 635 -30 717 -34 1049 -51 1062 -55 10 -3 11 -77 6 -327 -3 -178 -6 -324
-7 -324 -5 -7 -1757 70 -1856 81 -25 2 -96 5 -158 6 l-114 1 -72 62 c-40 33
-135 115 -210 180 -132 114 -137 120 -119 136 10 10 113 80 228 155 l210 137
95 -6 c52 -3 187 -10 300 -16z m5030 -20 c-14 -4 -43 -8 -65 -8 l-40 1 40 7
c22 4 51 7 65 8 l25 0 -25 -8z m709 -152 l78 -50 32 -176 c18 -98 37 -192 42
-209 15 -49 47 -44 86 11 39 55 70 76 121 83 49 7 76 -16 93 -79 18 -67 5
-143 -38 -228 -31 -60 -48 -82 -88 -108 -40 -27 -57 -33 -84 -28 -45 7 -67 -6
-81 -51 -7 -21 -31 -74 -53 -118 -58 -113 -201 -256 -307 -308 -134 -66 -222
-79 -338 -52 -214 51 -351 225 -411 521 -28 142 -47 700 -27 825 l7 46 88 -5
c88 -5 229 18 328 52 37 13 37 12 53 -18 23 -47 53 -58 139 -52 76 6 153 34
201 73 l25 21 28 -50 c22 -38 46 -61 106 -100z m161 42 c24 -34 25 -58 4 -81
-14 -16 -14 -25 6 -103 21 -87 27 -118 29 -170 1 -28 2 -29 20 -12 25 23 87
45 127 46 l32 0 12 83 c6 45 15 109 20 142 9 60 9 60 5 -17 -3 -42 -10 -109
-16 -148 -12 -70 -12 -70 -44 -70 -46 0 -96 -19 -127 -48 l-27 -25 -5 24 c-3
13 -12 65 -20 114 -8 50 -22 109 -30 131 -13 38 -13 42 5 57 29 25 23 51 -23
97 -31 31 -35 37 -15 25 15 -10 36 -30 47 -45z m-3108 -181 c94 -108 166 -162
420 -321 68 -42 76 -51 83 -85 3 -21 20 -66 36 -100 27 -56 33 -63 59 -63 24
0 33 7 50 39 25 51 55 71 103 71 78 0 128 -71 130 -181 1 -138 -106 -233 -243
-214 l-47 6 -36 -88 c-98 -236 -271 -401 -468 -448 -82 -19 -130 -19 -204 0
-96 25 -145 54 -221 129 -119 118 -189 296 -219 551 -29 249 -16 402 42 489
34 52 75 90 208 191 61 46 128 102 150 125 l40 41 25 -33 c14 -18 55 -67 92
-109z m-5653 -479 c22 -39 38 -77 35 -84 -8 -20 32 -81 41 -65 5 7 -1 19 -14
30 -13 10 -21 23 -19 29 2 6 22 -14 45 -43 41 -53 140 -137 161 -137 21 0 30
-36 32 -130 2 -58 -3 -122 -13 -165 -8 -38 -17 -97 -18 -130 -1 -33 -4 -63 -6
-67 -6 -12 -105 22 -173 59 -102 55 -209 141 -272 221 -32 40 -58 75 -58 77 0
3 20 23 45 46 72 66 141 229 161 377 3 28 8 52 9 52 2 0 21 -32 44 -70z m1045
-95 c-1 -5 -63 -42 -138 -82 -160 -84 -265 -152 -300 -194 -52 -61 -19 -62 74
-1 30 20 89 55 132 78 l76 41 12 -45 c6 -24 8 -47 5 -51 -4 -3 -47 -24 -97
-46 -93 -41 -122 -65 -101 -86 8 -8 24 -5 59 10 129 53 183 71 198 65 22 -9
47 -59 40 -79 -8 -19 -58 -45 -131 -69 -61 -20 -82 -40 -58 -54 26 -14 110 4
170 36 l55 30 10 -37 c26 -95 3 -175 -75 -251 -60 -59 -61 -29 -1 48 24 32 45
66 46 77 5 48 -1 49 -44 5 -23 -25 -55 -55 -69 -67 -21 -17 -27 -30 -27 -61 0
-60 -36 -186 -72 -254 -21 -40 -47 -71 -76 -92 -88 -62 -106 -85 -154 -211
-26 -66 -81 -210 -124 -320 -252 -653 -508 -1120 -723 -1317 -122 -112 -246
-134 -376 -68 -133 67 -285 257 -405 504 -59 122 -120 282 -120 316 0 43 227
211 366 271 75 32 85 34 196 34 160 0 163 -4 67 -103 -156 -159 -273 -352
-214 -352 8 0 27 19 41 43 64 101 146 201 269 327 210 216 343 383 540 680
190 287 201 316 210 558 3 92 13 199 22 238 10 45 14 104 12 166 l-4 95 45
-15 c25 -8 46 -16 48 -17 1 -1 -7 -23 -18 -49 -14 -31 -20 -62 -18 -93 l3 -47
38 76 c29 59 54 92 114 148 152 142 238 191 374 214 93 16 125 16 123 1z
m6567 -185 c11 -41 35 -107 54 -147 l34 -74 -42 -30 c-23 -17 -54 -37 -69 -45
-34 -18 -36 -34 -4 -34 24 0 110 59 120 82 3 9 8 7 17 -7 25 -39 105 -118 153
-150 56 -39 59 -36 -79 -85 -59 -21 -117 -34 -170 -37 -78 -6 -82 -8 -150 -59
-70 -52 -259 -240 -389 -386 l-69 -78 -51 30 c-108 65 -266 139 -327 155 -35
9 -68 19 -73 22 -11 7 51 64 279 254 342 286 391 329 565 497 96 93 176 169
178 167 1 -1 12 -35 23 -75z m1136 -188 c1 -37 16 -139 33 -227 33 -168 33
-192 3 -313 -14 -56 -20 -66 -60 -93 -266 -183 -541 -184 -654 -2 -23 36 -22
78 1 78 18 0 28 46 32 157 l3 88 52 0 c103 0 245 46 335 108 52 36 67 40 47
15 -13 -16 -12 -17 3 -4 10 7 16 16 13 20 -2 4 23 34 56 66 33 33 76 85 95
117 20 32 36 58 37 58 1 0 3 -30 4 -68z m-2558 -317 c11 -55 34 -128 52 -163
30 -62 98 -142 147 -173 l23 -14 -45 -66 c-116 -173 -289 -277 -488 -295 -86
-7 -229 16 -291 47 -60 31 -127 99 -153 154 -36 77 -33 90 29 113 28 11 66 23
84 26 34 8 32 12 49 -86 3 -21 12 -38 19 -38 17 0 28 63 20 111 -7 38 -6 39
22 39 77 1 219 57 303 119 53 39 116 109 166 183 46 69 53 92 32 104 -7 4 -10
4 -6 -1 4 -4 -1 -15 -10 -24 -10 -9 -13 -13 -8 -8 18 13 29 7 16 -8 -7 -9 -18
-14 -24 -12 -6 2 -32 -15 -59 -39 -54 -48 -156 -118 -163 -112 -2 3 22 21 54
41 66 41 202 172 202 195 0 33 10 2 29 -93z m2728 23 c43 -46 81 -148 98 -263
17 -117 34 -425 24 -425 -3 0 -36 16 -73 35 -94 49 -146 44 -203 -17 -23 -25
-47 -77 -38 -86 2 -3 26 12 52 32 67 52 80 53 175 11 103 -46 124 -51 145 -34
14 12 15 34 10 189 -6 156 -24 318 -43 396 -6 25 -5 27 17 21 13 -4 66 -17
116 -29 74 -18 92 -26 87 -38 -27 -63 -55 -189 -69 -320 -28 -249 -11 -759 31
-906 5 -20 1 -21 -78 -28 -91 -7 -443 -43 -497 -50 l-34 -5 6 247 c8 324 24
430 112 702 92 284 118 389 119 475 0 44 -3 93 -7 108 -7 25 -6 27 10 18 10
-5 28 -20 40 -33z m-1023 -70 c-36 -40 -46 -45 -159 -74 -134 -36 -219 -66
-315 -113 -64 -32 -65 -32 -35 -5 17 14 48 43 70 63 102 93 117 101 191 101
71 0 131 14 219 48 70 28 72 27 29 -20z m142 20 c-3 -13 -10 -50 -17 -83 -6
-33 -20 -82 -30 -110 -27 -71 -55 -185 -69 -286 l-13 -86 -36 20 c-42 23 -70
19 -123 -17 l-36 -24 23 86 c36 134 52 179 107 292 39 82 64 118 113 167 67
67 88 78 81 41z m-4401 -27 c12 -37 88 -145 143 -204 74 -77 156 -141 264
-205 l86 -52 7 -77 c4 -42 5 -109 2 -149 -4 -54 -2 -77 9 -91 13 -17 17 -15
58 30 51 57 85 61 120 14 18 -25 21 -43 21 -130 0 -92 -3 -108 -28 -160 -31
-63 -78 -105 -131 -117 -29 -6 -35 -5 -39 12 -11 40 -39 14 -67 -62 -71 -192
-131 -290 -249 -403 -120 -115 -255 -177 -381 -176 -101 1 -160 25 -207 84
-22 28 -84 92 -139 144 l-98 94 -7 126 c-14 245 -43 327 -128 359 -14 5 -28
22 -35 42 -20 63 -110 98 -181 71 -15 -6 -27 0 -52 26 -21 24 -39 33 -54 31
-31 -4 -35 -26 -7 -37 14 -5 32 -21 42 -35 15 -24 15 -31 2 -79 -8 -28 -17
-65 -21 -80 -5 -25 -8 -27 -21 -16 -32 26 -57 94 -62 166 -6 87 0 112 34 152
36 43 62 39 114 -14 46 -47 69 -55 89 -31 10 12 56 174 78 274 8 35 70 70 174
98 158 42 302 104 403 173 64 44 157 133 202 191 42 55 50 59 59 31z m2255
-96 c0 -6 -90 -45 -104 -45 -6 1 14 12 44 25 62 27 60 27 60 20z m1885 -67
c-54 -97 -152 -419 -140 -458 14 -44 68 -35 133 21 37 33 72 37 94 12 26 -31
28 -51 13 -156 -25 -182 -54 -516 -69 -807 -25 -464 -26 -485 -46 -1220 -11
-388 -25 -813 -30 -945 -5 -132 -10 -275 -10 -317 l0 -78 -100 0 c-112 0 -190
22 -243 70 l-31 27 17 119 c18 131 34 376 42 669 3 105 8 213 11 240 5 49 7
51 56 74 66 31 124 90 153 155 30 66 49 199 42 291 -9 105 -95 544 -169 865
-80 347 -79 340 -73 425 20 262 116 672 210 890 29 68 78 127 120 146 22 10
41 19 42 19 1 0 -9 -19 -22 -42z m-2025 12 c-14 -4 -44 -8 -67 -9 l-42 -1 -4
-52 -3 -53 -2 57 -2 57 53 4 c90 6 95 6 67 -3z m4068 -147 c154 -82 203 -124
281 -241 70 -105 169 -349 237 -585 25 -87 74 -249 110 -360 212 -659 283
-1052 223 -1229 -31 -93 -88 -167 -176 -227 -37 -25 -39 -22 -19 18 28 53 39
155 27 239 -23 152 -134 313 -256 373 -61 29 -186 37 -291 19 -107 -19 -119
-18 -122 6 -4 30 49 61 140 80 93 20 270 13 386 -16 93 -22 112 -24 112 -11 0
14 -96 57 -169 76 -147 38 -354 26 -462 -27 l-47 -24 -20 75 c-11 42 -45 173
-77 291 -162 614 -169 653 -162 915 6 241 44 432 112 566 18 35 73 109 81 109
3 0 44 -21 92 -47z m-2458 -19 c-22 -43 -100 -340 -100 -378 0 -58 -12 -57
-51 5 -22 33 -60 82 -85 109 -53 57 -58 41 55 173 65 76 80 88 128 103 29 9
56 21 59 26 3 5 8 8 10 6 2 -2 -5 -22 -16 -44z m704 -42 c25 -26 65 -58 89
-70 149 -75 368 -40 540 85 28 21 47 29 46 21 0 -7 -12 -46 -27 -86 l-27 -74
-79 -34 c-184 -81 -347 -85 -488 -13 -54 28 -47 7 10 -29 63 -40 141 -62 223
-62 94 0 154 15 243 59 42 21 76 36 76 32 0 -3 -9 -40 -20 -81 -47 -178 -62
-305 -67 -576 l-5 -261 -152 -16 c-83 -10 -200 -22 -261 -27 -161 -16 -171
-30 -145 -222 5 -40 19 -176 30 -303 11 -126 23 -244 25 -261 5 -29 3 -32 -25
-38 -68 -13 -98 -81 -68 -153 6 -15 10 -53 9 -84 -1 -33 4 -72 13 -94 10 -24
13 -51 9 -80 -4 -34 -1 -53 16 -85 13 -26 21 -59 21 -92 0 -61 25 -107 74
-133 32 -17 35 -24 51 -102 29 -150 58 -202 130 -241 40 -21 139 -18 335 12
85 12 156 22 158 21 7 -6 54 -536 48 -543 -4 -4 -155 -7 -334 -7 -346 0 -449
9 -640 57 l-84 21 6 111 c3 61 8 215 11 341 3 127 7 277 10 335 9 192 15 373
20 620 14 584 45 1150 81 1475 23 211 90 625 100 625 2 0 23 -22 48 -48z
m-1543 16 c30 -12 56 -23 57 -24 2 -1 -8 -33 -23 -71 -16 -37 -40 -104 -56
-148 -15 -44 -28 -75 -28 -69 -1 12 32 112 72 215 l25 67 -53 19 -54 20 -5
-21 c-3 -12 -12 -30 -21 -41 -15 -18 -15 -17 0 12 8 18 15 39 15 48 0 20 7 19
71 -7z m-1142 -158 c19 -38 19 -41 3 -21 -10 13 -27 45 -36 72 -10 27 -20 49
-22 49 -3 0 -33 -13 -68 -29 -177 -80 -305 -212 -402 -413 -19 -40 -32 -62
-28 -48 18 67 113 223 181 296 62 67 129 115 231 166 l97 47 11 -37 c6 -20 21
-57 33 -82z m1009 34 c-69 -96 -213 -203 -308 -228 -14 -4 11 11 55 32 100 48
169 103 230 181 57 72 70 81 23 15z m41 -26 c-54 -103 -222 -231 -373 -285
-63 -22 -206 -52 -206 -43 0 5 19 11 43 15 216 33 417 149 514 296 28 43 40
52 22 17z m10 -55 c-47 -102 -224 -244 -334 -268 -17 -3 -5 5 27 18 31 13 78
36 105 52 68 39 166 144 194 209 13 30 25 51 27 46 2 -4 -7 -30 -19 -57z m527
-1 c55 -36 117 -94 162 -152 30 -39 102 -187 128 -264 36 -104 28 -104 -10 -1
-60 163 -111 253 -190 330 -39 39 -90 80 -113 93 l-42 23 -21 -23 c-48 -51
-130 -255 -162 -403 -7 -33 -14 -53 -16 -44 -5 26 37 176 75 269 48 119 102
210 123 210 4 0 33 -17 66 -38z m-1407 -126 c71 -37 152 -56 237 -56 29 0 55
-3 58 -8 5 -8 -155 2 -199 13 -84 22 -207 100 -241 154 -10 15 3 6 31 -21 26
-26 77 -62 114 -82z m879 -126 c-17 -68 -34 -118 -35 -113 -2 6 10 60 27 122
16 61 30 114 30 118 0 3 2 4 5 1 3 -3 -9 -61 -27 -128z m-428 84 c-25 -8 -67
-17 -95 -19 l-50 -4 50 9 c28 5 64 14 80 19 17 5 37 9 45 9 8 0 -5 -6 -30 -14z
m-393 -40 l28 -25 -33 23 -33 23 -34 -20 c-19 -11 -75 -58 -126 -105 -51 -47
-101 -87 -113 -90 -45 -12 -175 -305 -242 -545 -20 -71 -39 -132 -42 -135 -7
-8 8 274 16 282 4 4 5 -33 2 -82 -5 -90 2 -118 15 -57 19 92 92 282 161 420
51 102 69 127 93 127 9 1 52 35 96 77 88 84 151 133 171 133 7 0 26 -12 41
-26z m183 -31 c28 -16 48 -47 44 -70 -1 -7 -3 -25 -4 -40 -2 -17 -6 -6 -9 26
-5 43 -11 58 -33 74 -34 26 -63 18 -121 -33 -45 -40 -45 -40 -34 -11 6 16 14
28 19 25 4 -3 25 7 45 21 44 29 55 31 93 8z m-202 -41 c3 -17 -27 -54 -124
-156 -125 -132 -157 -173 -148 -188 15 -23 53 6 184 138 80 80 163 159 184
175 65 48 112 33 87 -29 -6 -15 -59 -70 -117 -122 -115 -104 -217 -216 -211
-233 11 -34 50 -6 214 154 83 82 118 109 137 109 41 0 34 -40 -16 -92 -69 -70
-161 -178 -211 -246 -75 -102 -56 -143 25 -55 126 137 176 183 197 183 42 0
33 -28 -44 -137 -42 -59 -105 -166 -141 -238 -69 -136 -152 -255 -211 -302
-38 -31 -81 -72 -101 -97 -16 -20 -90 -21 -135 -2 -42 17 -102 86 -123 143
-15 39 -15 45 -1 61 9 9 32 73 52 142 91 309 146 452 212 550 21 30 86 104
144 164 109 111 140 128 147 78z m469 2 c-3 -3 -12 -4 -19 -1 -8 3 -5 6 6 6
11 1 17 -2 13 -5z m-49 -11 c-10 -2 -28 -2 -40 0 -13 2 -5 4 17 4 22 1 32 -1
23 -4z m-100 -10 c-10 -2 -28 -2 -40 0 -13 2 -5 4 17 4 22 1 32 -1 23 -4z
m-3145 -86 c12 -26 14 -79 10 -287 -4 -249 1 -300 26 -275 6 6 13 114 17 248
8 256 9 262 58 214 30 -30 43 -90 56 -263 6 -77 13 -148 15 -159 2 -12 60 -78
127 -147 147 -151 198 -229 198 -303 0 -64 -23 -191 -58 -326 l-28 -106 -25
19 c-60 49 -255 128 -315 128 -13 0 -24 1 -24 3 0 1 7 24 15 51 8 27 15 77 15
110 0 76 -24 129 -110 246 -34 47 -87 123 -118 170 -57 84 -57 85 -57 160 0
130 57 526 79 548 17 17 17 -26 -3 -205 -22 -208 -27 -368 -12 -378 18 -11 40
26 45 77 3 29 8 94 11 143 4 50 13 146 21 215 8 69 14 133 14 142 0 27 26 11
43 -25z m2016 -110 c-26 -105 -28 -120 -15 -145 58 -113 75 -292 36 -394 -11
-31 -32 -73 -45 -92 -13 -20 -21 -36 -16 -36 4 0 34 -26 66 -59 l59 -58 38 47
c25 32 39 59 40 81 l1 34 4 -32 c3 -26 -4 -43 -38 -88 l-42 -55 -71 67 -72 68
28 45 c41 64 58 132 58 226 0 81 -23 182 -56 246 -13 25 -12 37 6 110 36 142
41 160 45 156 2 -2 -9 -56 -26 -121z m1101 68 c10 -29 8 -42 -10 -82 -11 -26
-28 -55 -37 -65 -12 -13 -12 -18 -3 -18 17 0 50 -39 50 -59 0 -10 -5 -8 -13 8
-10 19 -30 37 -55 47 -1 1 10 23 27 50 40 67 44 94 22 138 -12 23 -14 33 -6
26 8 -6 19 -27 25 -45z m471 -165 c-22 -107 -40 -187 -40 -178 -1 9 15 98 34
198 19 100 35 184 36 188 0 4 2 3 5 -3 2 -5 -14 -98 -35 -205z m-1268 186 c11
-12 12 -26 4 -77 -6 -35 -12 -58 -14 -52 -2 6 0 34 5 62 7 40 6 53 -5 62 -20
17 -33 1 -59 -78 -13 -37 -23 -61 -23 -52 -1 22 26 98 45 126 17 27 27 28 47
9z m1588 -191 c-10 -66 -19 -109 -20 -95 0 14 6 68 14 120 8 52 15 100 16 105
0 7 2 7 5 0 2 -6 -5 -64 -15 -130z m633 -12 c14 -50 26 -98 25 -105 0 -16 -58
171 -59 191 0 26 7 7 34 -86z m-2253 -63 c-10 -58 -19 -94 -20 -81 -1 29 31
209 36 196 1 -6 -6 -57 -16 -115z m-80 0 c-11 -52 -20 -86 -20 -75 -1 11 6 55
14 98 8 43 15 82 16 85 0 4 2 3 5 -3 2 -5 -5 -53 -15 -105z m889 -65 c-12 -19
-24 -35 -27 -35 -2 0 5 15 16 34 12 18 22 42 22 52 1 17 2 17 6 1 2 -9 -5 -33
-17 -52z m781 -80 c-8 -48 -15 -84 -18 -82 -2 3 1 44 8 91 7 47 14 84 17 81 3
-3 0 -43 -7 -90z m707 30 c0 -16 -2 -15 -8 5 -11 34 -11 60 0 35 5 -11 8 -29
8 -40z m-600 -59 l-2 -81 -3 80 c-2 43 -9 86 -16 95 -11 13 -10 13 6 1 14 -11
17 -28 15 -95z m-48 75 c-5 -11 -10 -70 -10 -132 0 -62 -3 -110 -6 -107 -10
10 -5 218 6 238 6 11 13 20 16 20 2 0 0 -9 -6 -19z m-1753 -108 c-2 -21 -4 -4
-4 37 0 41 2 58 4 38 2 -21 2 -55 0 -75z m877 85 c-5 -7 -27 -42 -50 -78 -23
-36 -67 -117 -99 -180 -73 -147 -142 -247 -220 -318 -56 -51 -63 -63 -78 -122
-16 -64 -53 -160 -63 -160 -2 0 3 17 12 38 9 20 26 71 38 112 19 69 27 81 91
145 88 87 135 156 214 313 55 109 147 262 158 262 2 0 1 -6 -3 -12z m459 -190
c-15 -100 -29 -173 -31 -160 -2 13 8 94 22 181 14 87 26 162 26 166 0 5 3 6 6
3 3 -4 -7 -89 -23 -190z m1133 -103 c-3 -12 -67 248 -65 267 1 7 16 -48 35
-122 18 -74 32 -139 30 -145z m-5786 23 c0 -238 16 -565 31 -636 10 -49 7 -66
-34 -230 -25 -97 -58 -231 -73 -296 l-27 -119 -45 89 c-45 87 -141 199 -215
250 l-27 19 9 170 c6 94 13 269 16 390 4 121 11 281 16 355 5 74 9 142 9 151
0 13 20 17 128 22 70 4 143 11 162 16 19 5 38 9 43 10 4 1 7 -86 7 -191z
m7704 165 c3 -10 8 -23 11 -29 4 -6 -34 -15 -102 -23 -60 -7 -214 -25 -343
-41 -449 -55 -596 -71 -685 -73 -80 -2 -90 0 -93 17 -2 10 1 23 6 28 6 6 138
23 294 39 224 24 521 56 894 98 7 0 14 -7 18 -16z m-2713 -45 c-3 -21 -6 -26
-9 -15 -3 17 3 47 11 47 2 0 1 -15 -2 -32z m-1684 -111 c-2 -23 -3 -1 -3 48 0
50 1 68 3 42 2 -26 2 -67 0 -90z m1848 -72 c4 -22 5 -37 1 -34 -9 8 -36 175
-35 209 1 14 7 -11 14 -55 7 -44 16 -98 20 -120z m-190 -22 c-10 -62 -20 -112
-22 -110 -2 3 4 65 14 138 10 74 20 123 21 110 2 -13 -4 -75 -13 -138z m113
32 c-1 -31 -16 35 -16 70 0 25 2 24 9 -10 4 -22 8 -49 7 -60z m-4364 22 c10
-40 81 -111 141 -142 46 -23 71 -29 126 -29 79 -1 99 -15 143 -97 31 -57 41
-129 29 -209 l-8 -55 -40 -3 c-26 -2 -49 -12 -67 -29 -29 -28 -78 -138 -78
-176 0 -17 -9 -26 -35 -36 -19 -7 -59 -35 -90 -63 -45 -41 -55 -46 -55 -30 0
41 -51 212 -89 300 -21 50 -58 119 -81 155 -78 118 -112 107 -42 -14 82 -140
140 -305 161 -459 10 -77 20 -61 -189 -305 -74 -87 -166 -194 -203 -239 -59
-71 -73 -82 -110 -88 -89 -16 -207 -98 -207 -144 0 -12 13 -6 48 19 50 37 93
60 131 72 21 6 20 2 -16 -46 -55 -75 -88 -135 -108 -197 -28 -87 -5 -84 47 6
49 83 130 191 233 307 175 199 380 443 445 528 62 83 143 157 171 157 13 0
200 -69 252 -93 29 -13 92 -49 141 -81 92 -57 116 -66 116 -43 0 37 -289 198
-414 232 -39 11 -65 23 -62 29 2 6 20 47 38 91 l34 80 65 -1 c161 -2 429 -143
429 -226 0 -17 -16 -66 -36 -110 -22 -49 -40 -107 -45 -148 -13 -106 -13 -106
-174 -435 -277 -563 -421 -795 -494 -795 -48 0 -276 -40 -319 -56 -32 -12 -59
-36 -113 -101 l-71 -84 -42 6 c-243 36 -355 132 -403 345 -23 105 -23 377 1
525 21 129 83 414 156 710 164 664 276 844 602 970 78 30 75 30 82 2z m1531
-104 c3 -12 17 -36 32 -54 l27 -32 -82 -78 c-101 -96 -156 -135 -230 -162 -69
-25 -197 -29 -260 -8 -43 15 -43 15 -35 50 4 20 7 70 5 111 -3 89 4 89 14 0 4
-36 11 -68 16 -71 13 -9 96 6 153 28 39 15 49 23 47 39 -2 15 -1 16 7 5 8 -12
16 -11 48 11 50 33 193 173 193 189 0 7 -9 2 -19 -10 -11 -12 -23 -22 -28 -22
-4 1 -8 -3 -8 -8 0 -5 -4 -13 -9 -18 -5 -5 -6 -3 -2 5 12 20 -9 14 -38 -13
-14 -13 -26 -31 -26 -40 0 -8 -5 -15 -11 -15 -5 0 -7 -5 -3 -12 5 -8 2 -9 -9
-5 -10 4 -16 2 -14 -4 1 -6 -7 -16 -18 -22 -11 -7 -23 -16 -27 -22 -5 -6 -8
-6 -8 2 0 14 -23 11 -44 -7 -14 -10 -14 -15 -4 -21 9 -6 3 -9 -15 -9 -16 0
-26 -4 -23 -9 10 -15 -48 -21 -63 -6 -13 12 -12 15 1 20 9 4 14 16 12 33 -2
15 -1 19 2 9 3 -11 12 -16 20 -13 8 3 14 1 14 -3 0 -5 -6 -12 -12 -14 -7 -3
-3 -6 9 -6 18 -1 22 4 19 22 -2 13 -10 21 -20 21 -21 -2 -11 12 14 19 11 3 18
1 14 -4 -3 -5 0 -17 5 -26 6 -10 11 -13 11 -6 0 7 16 15 36 19 30 5 33 8 20
16 -11 6 -22 6 -32 -2 -7 -7 -14 -8 -14 -3 0 13 45 33 73 33 12 0 33 9 47 20
32 25 27 25 -39 -1 -30 -11 -80 -25 -110 -31 -31 -5 -62 -15 -70 -21 -12 -9
-13 -9 -7 1 5 8 1 12 -11 12 -10 0 -29 3 -43 6 -17 4 -21 3 -12 -4 10 -7 10
-11 -2 -21 -12 -10 -14 -8 -12 13 3 19 -1 26 -15 26 -10 0 -21 5 -24 10 -8 13
-3 13 31 0 51 -20 173 -13 251 14 78 26 189 94 238 144 l30 31 3 -42 c1 -23 4
-52 7 -64z m3552 65 c-3 -7 -5 -2 -5 12 0 14 2 19 5 13 2 -7 2 -19 0 -25z
m-2903 -2 c204 -77 346 -235 481 -534 85 -191 342 -898 408 -1127 115 -394
110 -640 -16 -773 -34 -35 -138 -74 -232 -87 l-50 -6 -75 66 c-41 37 -93 76
-114 87 -67 35 -249 59 -492 65 l-221 6 -11 58 c-20 108 -91 233 -121 215 -7
-5 -1 -27 18 -64 32 -65 56 -130 66 -185 7 -35 6 -37 -18 -37 -22 0 -117 -17
-194 -35 -20 -5 -23 -1 -23 24 0 97 -57 239 -120 300 l-42 41 85 0 c121 0 216
15 417 65 467 118 558 124 700 50 36 -19 93 -60 128 -90 35 -30 67 -55 73 -55
22 0 4 27 -63 95 -82 81 -175 132 -258 142 -61 7 -72 19 -28 28 67 15 163 7
242 -20 43 -14 81 -24 84 -21 12 12 -11 37 -55 60 -97 49 -235 54 -329 11 -29
-13 -65 -26 -81 -29 -30 -7 -30 -7 -68 96 -56 152 -82 233 -117 375 -31 122
-33 137 -33 318 0 154 4 204 19 265 21 81 93 261 126 315 20 33 26 65 12 65
-18 0 -87 -107 -124 -193 -105 -243 -123 -507 -53 -801 20 -86 23 -115 15
-158 -4 -29 -14 -119 -20 -199 l-12 -146 -207 -51 c-189 -48 -216 -52 -322
-52 -126 0 -176 -12 -232 -54 -32 -24 -33 -24 -117 -11 -148 22 -364 38 -461
33 -121 -5 -201 -40 -366 -160 l-51 -37 39 75 c22 42 50 92 64 113 24 39 265
516 265 525 0 3 24 57 54 120 62 131 76 173 76 236 0 34 11 67 47 138 39 77
48 103 48 147 0 36 -5 59 -17 72 -15 16 -16 24 -6 57 10 31 15 36 33 32 109
-28 274 -25 380 5 148 42 301 166 395 322 51 84 54 87 90 87 96 0 211 80 266
185 16 30 35 55 41 55 7 0 41 -11 77 -24z m2243 -280 c-4 -13 -57 234 -56 259
0 11 14 -41 30 -115 16 -74 27 -139 26 -144z m681 189 c0 -16 -2 -15 -8 5 -4
14 -8 36 -8 50 0 22 1 22 8 -5 4 -16 8 -39 8 -50z m-1202 10 c-5 -19 -18 -28
-61 -40 -62 -19 -121 -76 -180 -177 -40 -68 -44 -107 -14 -151 l21 -32 -26 30
c-16 19 -26 42 -26 62 0 43 45 122 114 199 45 50 67 67 104 77 40 12 49 19 57
46 11 36 20 24 11 -14z m562 -25 l0 -25 -8 25 c-4 14 -8 36 -8 50 l0 25 8 -25
c4 -14 8 -36 8 -50z m-3088 -15 c-7 -9 -15 -13 -19 -10 -3 3 1 10 9 15 21 14
24 12 10 -5z m3775 -178 c20 -98 35 -180 33 -182 -4 -4 -79 340 -78 359 1 26
11 -15 45 -177z m-2553 130 c-12 -13 -22 -27 -22 -31 0 -4 21 -41 46 -83 25
-41 44 -77 41 -79 -2 -2 -26 34 -53 80 l-50 83 24 32 c14 17 27 29 30 26 3 -3
-4 -15 -16 -28z m1713 -104 c44 -75 90 -155 103 -177 12 -23 27 -40 32 -39 5
2 7 -4 4 -11 -4 -10 3 -16 23 -19 l28 -5 -30 2 c-22 1 -33 9 -45 30 -8 16 -59
103 -112 193 -53 90 -93 163 -90 163 4 0 43 -62 87 -137z m195 2 c17 -66 37
-146 44 -177 7 -32 15 -60 17 -62 2 -3 47 4 99 15 52 10 102 18 110 18 15 -1
-185 -48 -206 -49 -10 0 -105 352 -103 382 1 20 7 2 39 -127z m-356 95 c18 -6
37 -33 66 -89 22 -44 59 -110 84 -148 111 -173 141 -257 133 -373 -8 -126 -53
-190 -132 -190 -45 0 -64 11 -224 129 -93 68 -122 81 -186 81 -39 0 -51 -12
-61 -64 l-7 -39 -43 46 c-35 36 -44 53 -44 81 0 48 26 62 122 69 85 6 121 20
116 45 -3 15 -18 17 -108 16 -61 0 -114 -5 -127 -12 -18 -10 -23 -9 -28 7 -10
31 13 71 49 86 18 8 72 24 119 36 94 23 147 50 147 75 0 19 -52 14 -190 -20
l-90 -22 6 20 c13 48 42 71 125 102 146 54 169 66 180 85 18 34 -14 32 -153
-7 -116 -33 -137 -42 -165 -73 -18 -19 -33 -41 -33 -48 0 -7 -4 -13 -10 -13
-16 0 -12 14 21 63 17 26 36 44 41 40 7 -3 8 -1 4 5 -11 18 24 60 69 84 77 41
247 56 319 28z m-1432 -126 c56 -52 104 -68 179 -61 33 3 59 3 59 0 0 -2 -20
-46 -44 -96 -23 -51 -56 -127 -72 -169 -16 -43 -31 -78 -34 -78 -3 0 -19 37
-36 83 -18 45 -48 119 -68 165 -19 45 -33 82 -31 82 3 0 19 -32 37 -71 24 -54
33 -67 40 -55 5 9 14 16 21 16 7 0 6 -4 -3 -10 -13 -9 -13 -10 1 -10 8 0 21 6
28 13 11 10 13 10 7 0 -5 -8 -1 -13 9 -13 9 0 14 4 11 8 -3 5 5 8 17 7 37 -3
47 6 76 64 l27 56 -50 -4 c-65 -4 -113 11 -170 54 -41 32 -106 123 -106 150 0
6 13 -13 29 -40 16 -28 49 -69 73 -91z m-1014 96 c21 0 -87 -150 -160 -221
-111 -107 -246 -165 -408 -173 -72 -4 -196 6 -207 17 -2 3 3 37 12 76 l18 70
27 -14 c15 -8 57 -19 94 -25 164 -29 333 48 492 225 64 72 66 73 92 59 15 -8
33 -14 40 -14z m-618 -23 c0 -5 -4 -5 -10 -2 -5 3 -10 14 -10 23 0 15 2 15 10
2 5 -8 10 -19 10 -23z m-40 3 c8 -5 11 -10 5 -10 -5 0 -17 5 -25 10 -8 5 -10
10 -5 10 6 0 17 -5 25 -10z m6223 -250 c33 -47 76 -104 95 -127 31 -39 33 -43
16 -49 -11 -4 -56 -24 -101 -45 -46 -21 -83 -36 -83 -33 0 2 -9 59 -19 127
-11 67 -25 165 -31 217 -6 52 -14 109 -17 125 -3 19 11 0 37 -50 23 -44 69
-118 103 -165z m-6195 202 c14 -21 13 -22 -17 -22 -17 0 -31 4 -31 9 0 6 9 8
19 6 14 -3 18 1 14 11 -3 8 -12 13 -20 10 -8 -3 -11 -1 -8 5 9 14 26 7 43 -19z
m3371 -72 c0 -9 -4 -8 -9 5 -5 11 -9 27 -9 35 0 9 4 8 9 -5 5 -11 9 -27 9 -35z
m34 -130 c6 -33 6 -33 -7 5 -7 22 -16 56 -19 75 -6 33 -6 33 7 -5 7 -22 16
-56 19 -75z m513 -23 c27 -14 56 -33 63 -41 8 -9 -12 0 -44 19 -32 19 -76 37
-99 40 -22 2 -57 7 -76 9 -19 2 -3 3 35 2 52 -2 83 -10 121 -29z m1064 -10
c41 -13 107 -32 145 -41 101 -24 162 -65 307 -205 l129 -124 152 12 c174 13
352 47 481 91 111 37 133 37 182 2 90 -66 156 -177 177 -298 10 -55 9 -76 -6
-131 -20 -75 -48 -120 -86 -135 -17 -6 -197 -9 -501 -8 -384 2 -502 -1 -615
-14 -262 -30 -437 -19 -560 35 -80 35 -105 56 -105 89 l0 29 48 -23 c63 -32
127 -50 147 -42 29 11 -1 34 -101 82 -96 46 -128 77 -122 119 l3 23 90 -39
c94 -41 128 -45 133 -18 2 12 -29 33 -108 74 -62 32 -118 68 -125 79 -13 21
-31 96 -23 96 3 0 33 -14 68 -31 80 -39 165 -58 182 -41 8 8 8 15 -2 27 -7 8
-17 15 -23 15 -16 0 -200 89 -219 107 -23 20 -24 71 -2 80 9 3 62 -1 118 -11
55 -9 142 -16 191 -16 50 0 107 -5 128 -11 28 -8 42 -7 52 1 24 20 1 44 -81
84 -83 42 -151 96 -165 134 -11 29 -2 46 20 38 9 -3 50 -16 91 -29z m-832
-192 c0 -16 -6 4 -14 45 -22 120 -26 174 -5 75 11 -49 20 -103 19 -120z
m-1568 164 c-8 -15 -10 -41 -5 -78 4 -31 10 -81 14 -111 4 -30 14 -69 24 -86
18 -35 67 -79 97 -89 19 -6 20 -15 20 -179 0 -203 14 -394 41 -563 10 -68 19
-127 19 -133 0 -6 -70 -9 -202 -8 l-203 3 198 2 c108 2 197 7 197 11 0 4 -9
61 -20 127 -32 192 -42 336 -41 580 l0 140 -38 26 c-83 58 -94 86 -117 284 -5
47 9 115 22 102 3 -3 0 -15 -6 -28z m-728 -90 c-33 -81 -83 -183 -68 -139 15
46 100 240 102 237 2 -2 -13 -46 -34 -98z m2033 66 c76 -27 101 -30 108 -15 3
6 4 5 3 -2 -4 -19 -51 -21 -84 -4 -58 30 -110 35 -201 20 -96 -15 -151 -17
-81 -2 57 12 139 25 165 27 11 0 52 -11 90 -24z m-350 -30 c-27 -7 -65 -14
-83 -14 -32 -1 -33 -2 -28 -33 l6 -33 -14 35 -13 35 60 7 c32 4 64 9 71 12 6
2 20 4 31 4 11 0 -2 -6 -30 -13z m3248 -86 c61 -32 148 -127 188 -206 34 -67
34 -69 34 -203 0 -154 -13 -198 -64 -224 -45 -24 -244 -64 -341 -68 l-85 -4
31 30 c103 103 101 329 -5 493 -40 63 -124 143 -150 144 -14 0 101 37 164 52
11 2 57 5 103 6 67 1 91 -3 125 -20z m-3346 -111 c-2 -24 -4 -7 -4 37 0 44 2
63 4 43 2 -21 2 -57 0 -80z m720 -100 c-2 -29 -3 -8 -3 47 0 55 1 79 3 53 2
-26 2 -71 0 -100z m-2321 -67 c31 -84 54 -155 51 -157 -3 -3 -13 19 -22 48
-10 29 -37 104 -61 167 -24 63 -39 110 -34 105 6 -6 35 -79 66 -163z m1584 62
c-10 -16 -11 -15 -6 7 3 14 6 32 7 40 1 8 4 5 6 -7 2 -12 -1 -30 -7 -40z m-34
-73 c-15 -23 -41 -49 -57 -59 l-31 -19 23 -15 c33 -21 161 -70 242 -92 37 -10
65 -20 63 -22 -13 -13 -249 69 -314 109 l-33 20 43 27 c24 15 52 44 63 64 10
20 21 34 24 32 2 -3 -8 -23 -23 -45z m737 -78 c-35 -69 -81 -106 -169 -137
-52 -19 -88 -24 -144 -23 l-75 1 90 7 c95 8 177 34 230 75 34 25 84 116 86
155 l2 25 4 -24 c3 -14 -7 -46 -24 -79z m-2193 -177 c16 -49 28 -90 26 -92 -2
-3 -16 33 -31 79 -16 46 -30 90 -33 98 -3 8 -2 12 2 9 3 -3 20 -46 36 -94z
m1780 35 c20 -6 21 -8 5 -8 -11 0 -33 4 -50 8 -27 7 -27 8 -5 8 14 0 36 -4 50
-8z m-1700 -264 c17 -48 29 -90 27 -93 -3 -2 -17 33 -32 79 -16 46 -30 90 -33
98 -3 8 -2 13 1 10 3 -3 20 -45 37 -94z m4369 -43 c3 -196 22 -611 30 -661 l8
-53 -36 -15 c-20 -9 -94 -38 -166 -64 -190 -71 -287 -109 -317 -125 -20 -12
-68 -15 -212 -15 l-186 0 0 43 c0 57 -47 564 -60 642 -15 89 -14 95 15 95 54
0 627 90 660 104 37 16 75 67 75 103 0 23 17 27 136 31 l51 2 2 -87z m-4311
-143 c0 -8 -6 1 -13 20 -7 19 -13 42 -13 50 0 8 6 -1 13 -20 7 -19 13 -42 13
-50z m-935 -33 c16 -45 31 -89 34 -98 4 -13 -6 -17 -43 -23 -26 -3 -48 -5 -49
-4 -2 2 1 28 6 58 4 30 8 79 8 109 1 30 4 51 8 48 3 -4 20 -44 36 -90z m1017
-90 l45 -4 -49 1 -49 1 -13 45 c-8 25 -13 50 -13 55 1 6 9 -13 17 -42 16 -52
17 -52 62 -56z m220 -15 c0 -9 -143 -3 -152 6 -4 4 29 6 72 4 44 -2 80 -7 80
-10z m-2515 -242 c61 -5 193 -19 295 -31 l185 -21 33 -36 c40 -44 72 -143 72
-222 l0 -57 -62 -30 c-124 -60 -157 -66 -317 -60 -146 5 -146 5 -248 -29 -104
-35 -147 -41 -173 -24 -18 11 -25 5 105 85 131 80 169 113 154 131 -13 16 -36
8 -121 -44 -35 -22 -109 -63 -163 -91 -86 -46 -104 -52 -149 -49 -28 2 -51 8
-51 13 1 11 54 51 270 204 97 68 143 106 135 111 -33 20 -196 -70 -384 -214
-105 -80 -114 -85 -161 -86 l-39 0 59 61 c33 33 119 112 192 175 114 100 156
144 137 144 -3 0 -30 -12 -60 -27 -59 -29 -189 -134 -319 -256 -116 -110 -187
-120 -119 -17 81 123 170 208 312 296 135 85 190 94 417 74z m4000 -262 c-6
-78 -5 -85 19 -120 l25 -38 -144 0 -145 0 0 29 c0 16 -3 42 -6 58 -6 29 -4 29
88 66 52 20 109 48 128 62 19 13 37 24 38 25 2 0 1 -37 -3 -82z m-4831 -82
c-3 -14 -2 -31 2 -38 5 -7 7 -23 5 -36 -7 -57 63 -97 129 -73 26 9 34 7 50 -9
22 -22 72 -26 114 -10 21 7 33 5 59 -10 l32 -20 -83 0 c-148 0 -424 -21 -541
-41 -120 -20 -249 -54 -265 -70 -13 -12 1 -12 119 6 429 65 967 62 1225 -7
106 -29 130 -32 130 -19 0 23 -90 66 -190 92 l-45 12 69 23 c56 19 91 24 170
24 l101 0 2 -109 1 -108 -39 -12 c-41 -12 -69 -43 -69 -75 0 -18 -2 -18 -27 6
-70 66 -240 83 -753 75 -212 -4 -482 -13 -600 -21 -118 -9 -230 -16 -249 -16
-34 0 -33 2 110 148 80 81 164 173 187 204 32 44 50 58 74 63 135 25 247 43
266 44 19 1 21 -3 16 -23z m2136 -21 c47 -3 139 -13 204 -22 119 -17 120 -17
175 -64 31 -26 119 -111 196 -188 138 -140 139 -141 105 -141 -19 0 -172 7
-340 15 -752 36 -1105 23 -1215 -45 l-31 -19 -18 29 c-17 29 -62 60 -88 60
-10 0 -13 26 -13 110 l0 110 48 0 c56 0 174 37 250 79 56 31 222 68 357 80 78
7 224 5 370 -4z m-1590 -170 c11 -13 7 -15 -26 -15 -39 1 -39 1 -14 15 14 8
26 14 26 15 1 0 7 -7 14 -15z"/>
<path d="M4432 6650 c-32 -26 -172 -70 -249 -77 -107 -10 -125 -64 -25 -76 93
-11 273 36 337 87 26 21 29 27 20 52 -13 36 -50 42 -83 14z"/>
<path d="M4685 6598 c-22 -13 -18 -41 8 -66 30 -28 182 -92 219 -92 31 0 43
13 30 35 -14 26 -239 133 -257 123z"/>
<path d="M4202 6395 c-21 -45 -15 -103 13 -130 30 -31 50 -32 70 -1 25 38 29
89 11 124 -14 26 -23 32 -50 32 -25 0 -35 -6 -44 -25z"/>
<path d="M3627 6392 c-25 -28 -21 -35 17 -29 45 7 60 -11 52 -58 -3 -19 -9
-51 -12 -70 -10 -56 52 -135 70 -89 3 8 1 24 -5 35 -8 15 -7 34 2 68 14 57 8
89 -27 130 -30 36 -72 41 -97 13z"/>
<path d="M4586 6388 c-22 -34 -38 -118 -31 -164 3 -23 19 -68 35 -100 49 -98
35 -140 -42 -128 -47 8 -69 -17 -42 -47 16 -18 27 -20 68 -16 40 3 55 11 78
36 38 43 36 85 -7 182 -38 83 -45 133 -32 212 9 52 -2 62 -27 25z"/>
<path d="M4716 6369 c-45 -53 -25 -159 29 -159 36 0 59 42 59 105 0 86 -40
111 -88 54z"/>
<path d="M4392 5799 c-59 -8 -102 -31 -102 -56 0 -14 9 -15 78 -7 122 13 172
10 219 -14 78 -40 130 -23 65 21 -76 53 -156 70 -260 56z"/>
<path d="M11727 6230 c-14 -11 -69 -37 -121 -57 -93 -34 -117 -56 -80 -70 9
-3 41 0 72 6 118 25 172 57 172 101 0 38 -12 44 -43 20z"/>
<path d="M12010 6220 c-11 -7 -12 -15 -5 -37 20 -58 279 -117 309 -70 9 15 7
21 -8 33 -11 8 -32 14 -46 14 -37 0 -181 39 -207 56 -26 16 -24 16 -43 4z"/>
<path d="M11839 6025 c0 -5 0 -29 1 -52 2 -60 -23 -138 -70 -213 -43 -70 -49
-103 -24 -138 33 -48 125 -69 159 -36 22 22 5 40 -47 47 -22 3 -48 13 -57 21
-14 14 -14 19 -1 39 59 93 74 132 78 212 4 70 2 83 -17 105 -11 14 -21 21 -22
15z"/>
<path d="M12140 6001 c-30 -73 -11 -161 34 -161 46 0 74 51 62 112 -15 77 -72
106 -96 49z"/>
<path d="M11631 6001 c-39 -39 -39 -123 -1 -161 26 -26 36 -25 67 6 22 23 25
32 21 80 -7 82 -46 116 -87 75z"/>
<path d="M12747 5923 c-9 -2 -29 -25 -43 -49 -21 -35 -27 -58 -26 -102 0 -31
-6 -68 -14 -83 -16 -31 -9 -40 21 -29 29 11 56 45 55 66 -7 91 -4 114 19 138
14 15 33 26 43 26 21 0 23 11 6 28 -12 12 -28 13 -61 5z"/>
<path d="M11846 5397 c-45 -14 -67 -40 -49 -58 10 -10 27 -10 76 -1 87 16 108
15 179 -9 49 -16 63 -18 69 -7 12 19 -17 45 -78 68 -60 22 -137 25 -197 7z"/>
<path d="M9533 5973 c-7 -2 -13 -15 -13 -29 0 -29 31 -51 101 -69 29 -8 77
-24 107 -36 50 -20 55 -21 70 -5 27 27 4 46 -99 84 -52 18 -105 39 -119 45
-14 6 -27 12 -30 13 -3 1 -11 0 -17 -3z"/>
<path d="M9084 5939 c-59 -22 -97 -58 -88 -82 8 -23 22 -21 90 9 42 19 77 27
124 28 56 1 65 4 68 20 3 11 -4 26 -14 33 -26 19 -121 15 -180 -8z"/>
<path d="M9131 5751 c-40 -40 -39 -125 1 -168 28 -30 42 -29 67 3 25 32 27 80
6 131 -24 56 -43 65 -74 34z"/>
<path d="M9322 5688 c1 -67 -18 -120 -67 -187 -55 -75 -22 -157 68 -171 59 -9
89 3 85 32 -2 19 -11 24 -50 30 -26 3 -52 9 -57 13 -20 12 -11 45 25 99 27 42
37 68 41 113 6 69 -7 127 -29 131 -14 3 -16 -7 -16 -60z"/>
<path d="M9611 5734 c-41 -29 -34 -151 10 -175 44 -23 94 48 82 117 -10 55
-55 83 -92 58z"/>
<path d="M10212 5647 c-34 -36 -53 -92 -48 -146 5 -68 13 -77 42 -50 21 20 23
28 17 76 -5 50 -4 56 22 83 17 17 25 35 22 44 -9 22 -30 20 -55 -7z"/>
<path d="M9360 5161 c-45 -15 -87 -40 -94 -56 -7 -19 16 -30 47 -21 112 29
120 29 182 7 51 -18 61 -19 74 -7 7 8 11 21 8 29 -14 37 -156 68 -217 48z"/>
<path d="M3908 5574 c0 -5 -2 -13 -3 -19 -2 -5 -3 -17 -4 -25 -1 -10 -7 -7
-17 10 l-15 25 6 -25 c3 -14 10 -50 15 -80 14 -82 45 -165 61 -165 20 -1 30
18 16 28 -8 6 -6 7 6 3 12 -4 17 -2 14 6 -2 7 -14 13 -26 13 -37 0 -57 57 -25
69 14 5 15 4 5 -7 -8 -10 -8 -22 -2 -38 l10 -24 2 25 c1 17 3 19 6 8 2 -9 10
-15 18 -12 7 3 23 0 35 -6 12 -6 24 -10 26 -7 7 7 -7 37 -18 37 -5 0 -6 -4 -3
-10 3 -6 -1 -7 -9 -4 -20 8 -20 12 -2 29 12 12 15 12 20 0 3 -8 13 -15 22 -15
10 0 14 -5 11 -15 -4 -8 -2 -17 3 -20 6 -4 10 5 10 19 0 17 -5 26 -16 26 -11
0 -15 6 -11 20 3 11 1 20 -4 20 -5 0 -9 4 -9 9 0 5 11 4 24 -2 22 -10 22 -13
7 -25 -13 -11 -14 -13 -1 -9 19 6 27 -48 10 -68 -7 -8 -6 -23 5 -49 14 -33 13
-40 -6 -38 -4 1 -2 -9 4 -23 22 -45 30 -12 23 94 -5 82 -10 108 -23 116 -9 6
-35 24 -59 42 -23 18 -45 29 -47 25 -2 -4 -3 -2 -1 4 1 7 -11 24 -27 40 -16
15 -30 24 -31 18z m107 -124 c-3 -5 -12 -10 -18 -10 -8 0 -8 3 2 9 9 6 10 11
2 15 -6 4 -11 12 -11 17 0 6 7 3 16 -5 8 -9 12 -20 9 -26z m-82 -17 c-3 -7 -9
-13 -13 -13 -4 0 -10 6 -13 13 -3 7 3 13 13 13 10 0 16 -6 13 -13z m57 -23
c-24 -15 -36 -11 -14 4 10 8 21 12 24 10 2 -3 -2 -9 -10 -14z"/>
<path d="M3994 5336 c3 -30 16 -48 16 -23 0 10 8 17 18 16 10 0 12 -3 5 -6
-16 -6 -17 -23 -2 -23 7 0 17 -7 24 -16 10 -15 12 -15 12 -1 0 9 -6 18 -13 21
-7 3 -11 14 -9 25 3 14 -1 18 -11 14 -8 -3 -21 0 -29 7 -11 9 -13 7 -11 -14z"/>
<path d="M4010 5290 c0 -6 7 -10 15 -10 8 0 15 2 15 4 0 2 -7 6 -15 10 -8 3
-15 1 -15 -4z"/>
<path d="M3953 5275 c2 -5 15 -17 30 -25 22 -12 29 -12 39 -2 11 11 9 12 -6 6
-14 -5 -17 -4 -12 5 4 6 4 11 -1 10 -20 -3 -27 2 -13 11 11 8 9 9 -13 8 -15
-1 -26 -7 -24 -13z"/>
<path d="M4040 5230 c18 -12 30 -13 30 -2 0 4 -10 9 -22 9 -18 2 -20 0 -8 -7z"/>
<path d="M12380 5055 c-7 -9 -11 -18 -8 -20 3 -3 11 1 18 10 7 9 11 18 8 20
-3 3 -11 -1 -18 -10z"/>
<path d="M12335 5051 c-3 -5 -1 -12 5 -16 5 -3 10 -14 9 -23 0 -11 -3 -12 -6
-4 -2 6 -10 12 -16 12 -8 0 -8 -3 1 -12 9 -9 9 -15 0 -27 -7 -9 0 -5 15 9 19
18 25 31 21 48 -7 23 -19 29 -29 13z"/>
<path d="M12293 5025 c-12 -8 -46 -25 -77 -36 l-55 -21 31 -28 c23 -21 29 -33
23 -47 -7 -16 -9 -15 -15 7 -6 21 -8 22 -15 8 -4 -9 -4 -22 0 -29 5 -8 1 -9
-15 -4 -13 4 -20 3 -17 -2 3 -5 -12 -14 -33 -20 -22 -5 -37 -7 -35 -2 3 4 -3
5 -13 2 -12 -3 -18 2 -19 17 -1 13 2 18 10 14 7 -4 9 -3 4 1 -4 5 -17 9 -28
10 -18 2 -18 0 -5 -13 13 -14 13 -17 -2 -28 -15 -12 -14 -14 13 -15 30 -1 30
-1 5 -9 -22 -7 -23 -8 -4 -9 51 -2 181 57 247 112 24 20 26 25 13 30 -9 4 -15
2 -13 -2 1 -5 -2 -8 -8 -7 -5 0 -9 4 -8 7 1 4 -7 4 -19 1 -21 -5 -21 -5 3 -14
23 -9 23 -10 5 -24 -27 -19 -32 -18 -56 15 l-21 30 33 9 c18 6 42 13 52 18 14
5 17 4 12 -4 -4 -7 -2 -12 3 -12 6 0 11 8 11 18 0 10 5 23 12 30 17 17 7 15
-19 -3z"/>
<path d="M12140 4953 c0 -6 -11 -8 -24 -6 -13 3 -26 1 -30 -5 -3 -5 -21 -8
-41 -5 -19 2 -35 -1 -35 -6 0 -6 7 -8 15 -5 9 4 15 0 15 -7 0 -11 2 -11 8 -2
6 9 17 10 38 4 22 -6 33 -4 48 10 11 11 16 22 13 26 -4 3 -7 2 -7 -4z"/>
<path d="M12167 4944 c-4 -4 -7 -19 -6 -33 l0 -26 10 24 c10 26 8 47 -4 35z"/>
<path d="M11951 4908 c2 -30 2 -30 6 -6 2 15 12 29 21 31 12 3 10 5 -5 6 -20
1 -23 -4 -22 -31z"/>
<path d="M12080 4896 c0 -18 28 -41 38 -31 4 4 1 10 -5 12 -7 3 -13 11 -13 19
0 8 -4 14 -10 14 -5 0 -10 -6 -10 -14z"/>
<path d="M12130 4899 c0 -5 5 -7 10 -4 6 3 10 8 10 11 0 2 -4 4 -10 4 -5 0
-10 -5 -10 -11z"/>
<path d="M12563 3915 c-26 -87 -28 -245 -3 -245 12 0 22 110 18 205 -3 80 -3
80 -15 40z"/>
<path d="M7292 4445 c-18 -38 -13 -95 8 -95 15 0 32 59 25 89 -8 38 -18 39
-33 6z"/>
<path d="M7392 4448 c-18 -18 -15 -32 16 -61 55 -53 202 -96 329 -97 94 0 77
40 -26 60 -157 32 -194 44 -242 76 -57 38 -60 39 -77 22z"/>
<path d="M7051 4425 c-39 -28 -161 -62 -251 -71 -73 -8 -100 -18 -100 -39 0
-22 36 -28 129 -20 172 14 329 91 296 145 -10 16 -38 11 -74 -15z"/>
<path d="M7544 4212 c-51 -35 -61 -140 -18 -191 28 -33 64 -40 83 -17 39 47
30 160 -16 196 -28 22 -33 23 -49 12z"/>
<path d="M6905 4176 c-45 -45 -45 -144 1 -187 30 -28 50 -20 76 32 27 52 24
124 -7 154 -30 31 -40 31 -70 1z"/>
<path d="M7226 4129 c-3 -19 -7 -51 -10 -71 -2 -21 -21 -73 -40 -117 -43 -94
-47 -147 -13 -179 44 -42 113 -54 142 -26 24 24 14 38 -34 46 -81 14 -88 39
-40 143 38 80 46 192 17 221 -15 16 -17 14 -22 -17z"/>
<path d="M8047 4070 c-35 -41 -51 -94 -43 -146 3 -24 1 -55 -4 -69 -15 -39 16
-46 47 -11 25 29 30 74 12 107 -14 27 6 85 37 106 31 20 31 43 0 43 -15 0 -34
-12 -49 -30z"/>
<path d="M7220 3538 c-60 -10 -113 -35 -128 -59 -20 -31 9 -34 96 -9 75 22 79
22 137 6 111 -31 117 -32 113 -5 -6 48 -125 84 -218 67z"/>
<path d="M13636 4304 c-115 -122 -233 -514 -209 -693 8 -61 21 -50 28 27 20
200 67 359 169 563 35 71 60 131 55 134 -4 3 -24 -11 -43 -31z"/>
<path d="M8861 3344 c0 -11 3 -14 6 -6 3 7 2 16 -1 19 -3 4 -6 -2 -5 -13z"/>
<path d="M7438 3033 c7 -3 16 -2 19 1 4 3 -2 6 -13 5 -11 0 -14 -3 -6 -6z"/>
<path d="M7668 1581 c-97 -81 -207 -161 -315 -227 -12 -8 -15 -15 -8 -22 15
-16 110 26 190 82 122 88 296 268 257 266 -4 0 -60 -45 -124 -99z"/>
<path d="M9026 2701 c-5 -7 -19 -11 -32 -8 -13 2 -24 0 -24 -5 0 -5 12 -8 28
-7 15 2 32 0 38 -4 7 -4 15 0 18 9 3 8 2 13 -3 9 -5 -3 -11 0 -13 7 -3 9 -6 9
-12 -1z"/>
<path d="M7840 630 c-185 -18 -360 -73 -360 -113 0 -11 31 -7 182 27 208 46
413 52 808 25 113 -8 378 -39 443 -52 5 -1 11 3 14 10 5 13 -34 25 -147 49
-244 50 -706 77 -940 54z"/>
<path d="M2248 8985 c-90 -21 -149 -47 -222 -99 -75 -53 -117 -105 -159 -194
-30 -63 -32 -73 -32 -182 0 -142 7 -174 38 -167 12 2 72 14 132 27 l110 22 0
87 c0 69 5 94 23 128 66 125 201 166 314 94 60 -38 89 -88 97 -166 12 -114
-12 -176 -130 -336 -113 -152 -136 -238 -105 -398 8 -46 17 -86 20 -88 4 -4
247 44 253 50 1 2 -2 20 -7 42 -5 22 -10 67 -10 100 0 75 25 132 114 255 133
185 162 262 153 400 -16 248 -193 422 -442 435 -50 3 -105 -1 -147 -10z"/>
<path d="M10225 8438 c-62 -34 -86 -75 -87 -149 -1 -171 203 -221 280 -69 39
79 21 161 -48 208 -36 24 -110 30 -145 10z"/>
<path d="M4016 8390 c-62 -19 -116 -95 -116 -162 1 -42 30 -106 63 -137 55
-51 182 -33 232 33 32 42 47 112 34 159 -23 85 -121 134 -213 107z m44 -12 c0
18 67 5 103 -20 74 -52 78 -179 8 -242 -12 -11 -21 -15 -21 -11 0 5 -6 1 -13
-8 -8 -12 -27 -18 -62 -18 -66 -2 -85 4 -105 29 -10 12 -20 19 -22 16 -7 -6
-25 43 -33 89 -3 21 -2 37 4 37 5 0 7 8 5 18 -7 23 38 87 59 86 9 -1 15 2 12
6 -8 13 49 29 57 16 5 -8 8 -7 8 2z"/>
<path d="M3998 8273 c7 -3 16 -2 19 1 4 3 -2 6 -13 5 -11 0 -14 -3 -6 -6z"/>
<path d="M13513 7741 c-61 -21 -124 -62 -159 -104 -53 -63 -116 -224 -91 -232
7 -2 48 -15 92 -29 93 -30 95 -30 95 -12 0 27 41 111 68 139 39 42 75 57 132
57 151 0 235 -147 164 -288 -31 -63 -70 -95 -204 -167 -118 -63 -133 -75 -165
-130 -26 -43 -67 -192 -56 -199 4 -3 49 -15 102 -29 l94 -24 23 74 c28 91 70
140 161 190 158 86 197 118 245 197 112 186 45 429 -145 527 -101 51 -255 64
-356 30z m282 -14 c22 -9 34 -16 27 -16 -10 -1 -10 -4 0 -15 14 -15 32 -11 23
5 -7 10 24 0 40 -13 6 -5 19 -15 30 -23 16 -11 18 -16 8 -26 -7 -7 -13 -17
-13 -22 0 -5 8 1 18 13 l19 23 25 -34 c47 -62 71 -113 72 -155 0 -23 5 -39 10
-36 11 6 0 -106 -15 -162 -8 -30 -13 -36 -21 -25 -7 10 -8 7 -4 -11 3 -16 -2
-34 -15 -50 -12 -14 -17 -19 -13 -11 4 9 3 12 -4 7 -6 -4 -9 -13 -6 -20 6 -15
-40 -56 -65 -57 -12 0 -12 -2 -2 -6 8 -3 -5 -16 -35 -34 -26 -15 -52 -25 -56
-23 -4 3 -8 0 -8 -6 0 -6 -6 -10 -12 -9 -25 3 -39 -1 -33 -10 14 -23 -15 -18
-32 5 l-19 26 -12 -26 c-7 -16 -8 -28 -2 -31 6 -4 10 1 10 10 0 17 22 16 26
-1 4 -10 -70 -64 -88 -64 -6 0 -8 -3 -5 -7 4 -3 -1 -12 -11 -20 -9 -8 -11 -11
-4 -8 8 4 2 -14 -12 -41 -14 -27 -26 -57 -26 -67 0 -11 -5 -15 -11 -11 -8 4
-9 0 -4 -15 5 -15 2 -21 -10 -21 -10 0 -13 5 -9 12 4 7 3 8 -5 4 -7 -5 -43 0
-82 9 -55 14 -69 21 -69 36 0 10 5 19 11 19 6 0 8 9 4 21 -5 16 -4 19 6 14 9
-6 11 -3 6 8 -3 10 -2 17 3 17 6 0 10 -3 11 -7 0 -5 2 -18 3 -30 2 -13 6 -26
9 -30 4 -3 5 9 3 27 -2 19 -12 40 -22 47 -10 7 -13 13 -8 13 5 0 10 9 11 20 3
30 40 87 76 114 18 13 61 38 97 56 36 18 77 41 92 51 30 22 42 24 32 7 -4 -8
-3 -10 2 -5 5 5 9 12 9 16 0 4 19 29 43 56 23 27 40 40 36 29 -4 -14 -4 -16 4
-5 6 8 8 19 6 26 -3 6 1 26 9 43 10 25 11 47 4 90 -5 31 -9 65 -10 74 -1 9 -5
14 -9 12 -4 -3 -14 6 -23 19 -8 13 -31 32 -50 43 -19 10 -35 22 -35 26 0 4 -6
5 -14 2 -8 -3 -23 -1 -32 4 -12 7 -30 5 -58 -4 -37 -14 -42 -13 -54 3 -13 17
-14 16 -8 -4 5 -16 1 -25 -14 -33 -31 -17 -79 -89 -92 -137 -11 -46 -18 -51
-40 -30 -7 8 -18 12 -23 10 -6 -1 -32 5 -60 15 -52 19 -55 25 -42 79 18 71 97
191 118 177 5 -3 8 0 7 7 -4 17 95 70 139 74 19 2 38 7 42 10 10 12 163 -2
206 -18z"/>
<path d="M13540 7710 c0 -5 7 -7 15 -4 8 4 15 8 15 10 0 2 -7 4 -15 4 -8 0
-15 -4 -15 -10z"/>
<path d="M13720 7716 c0 -2 8 -10 18 -17 15 -13 16 -12 3 4 -13 16 -21 21 -21
13z"/>
<path d="M13674 7658 c-9 -14 12 -16 36 -3 l25 13 -29 -1 c-15 -1 -30 -5 -32
-9z"/>
<path d="M13513 7645 c0 -7 6 -11 14 -8 7 3 13 6 13 8 0 2 -6 5 -13 8 -8 3
-14 -1 -14 -8z"/>
<path d="M13478 7623 c7 -3 16 -2 19 1 4 3 -2 6 -13 5 -11 0 -14 -3 -6 -6z"/>
<path d="M13517 7607 c-7 -20 17 -24 29 -5 4 6 3 8 -4 4 -5 -3 -12 -1 -14 6
-3 8 -7 6 -11 -5z"/>
<path d="M13765 7610 c3 -5 11 -10 16 -10 6 0 7 5 4 10 -3 6 -11 10 -16 10 -6
0 -7 -4 -4 -10z"/>
<path d="M13648 7603 c7 -3 16 -2 19 1 4 3 -2 6 -13 5 -11 0 -14 -3 -6 -6z"/>
<path d="M13948 7603 c7 -3 16 -2 19 1 4 3 -2 6 -13 5 -11 0 -14 -3 -6 -6z"/>
<path d="M13923 7586 c2 -23 24 -33 24 -12 0 8 -4 13 -8 10 -4 -2 -10 2 -13 8
-3 7 -5 4 -3 -6z"/>
<path d="M13750 7575 c-7 -9 -8 -15 -2 -15 5 0 12 7 16 15 3 8 4 15 2 15 -2 0
-9 -7 -16 -15z"/>
<path d="M13347 7539 c4 -13 8 -18 11 -10 2 7 -1 18 -6 23 -8 8 -9 4 -5 -13z"/>
<path d="M13862 7544 c10 -10 20 -16 22 -13 3 3 -5 11 -17 18 -21 13 -21 12
-5 -5z"/>
<path d="M13972 7540 c0 -14 2 -19 5 -12 2 6 2 18 0 25 -3 6 -5 1 -5 -13z"/>
<path d="M14000 7520 c0 -5 5 -10 10 -10 6 0 10 5 10 10 0 6 -4 10 -10 10 -5
0 -10 -4 -10 -10z"/>
<path d="M13370 7459 c0 -5 5 -7 10 -4 6 3 10 8 10 11 0 2 -4 4 -10 4 -5 0
-10 -5 -10 -11z"/>
<path d="M13401 7454 c0 -11 3 -14 6 -6 3 7 2 16 -1 19 -3 4 -6 -2 -5 -13z"/>
<path d="M13965 7351 c-3 -5 -2 -12 3 -15 5 -3 9 1 9 9 0 17 -3 19 -12 6z"/>
<path d="M13945 7320 c-3 -5 -1 -10 4 -10 6 0 11 5 11 10 0 6 -2 10 -4 10 -3
0 -8 -4 -11 -10z"/>
<path d="M13795 7210 c-3 -5 -1 -10 4 -10 6 0 11 5 11 10 0 6 -2 10 -4 10 -3
0 -8 -4 -11 -10z"/>
<path d="M13885 7200 c3 -5 8 -10 11 -10 2 0 4 5 4 10 0 6 -5 10 -11 10 -5 0
-7 -4 -4 -10z"/>
<path d="M13758 7132 c-4 -15 -1 -18 14 -14 11 2 16 8 11 11 -4 3 -11 10 -14
14 -4 4 -9 -1 -11 -11z"/>
<path d="M13796 7088 c3 -5 10 -6 15 -3 13 9 11 12 -6 12 -8 0 -12 -4 -9 -9z"/>
<path d="M13652 7045 c0 -16 2 -22 5 -12 2 9 2 23 0 30 -3 6 -5 -1 -5 -18z"/>
<path d="M13529 7013 c-13 -17 -13 -17 6 -3 11 8 22 16 24 17 2 2 0 3 -6 3 -6
0 -17 -8 -24 -17z"/>
<path d="M13608 6943 c6 -2 18 -2 25 0 6 3 1 5 -13 5 -14 0 -19 -2 -12 -5z"/>
<path d="M13561 6914 c0 -11 3 -14 6 -6 3 7 2 16 -1 19 -3 4 -6 -2 -5 -13z"/>
<path d="M13598 6923 c6 -2 18 -2 25 0 6 3 1 5 -13 5 -14 0 -19 -2 -12 -5z"/>
<path d="M13527 6824 c2 -7 11 -10 19 -7 19 7 18 10 -5 16 -13 3 -18 1 -14 -9z"/>
<path d="M13506 6801 c-3 -5 1 -11 9 -14 9 -4 12 -1 8 9 -6 16 -10 17 -17 5z"/>
<path d="M13445 6790 c4 -6 11 -8 16 -5 14 9 11 15 -7 15 -8 0 -12 -5 -9 -10z"/>
<path d="M12328 7693 c7 -3 16 -2 19 1 4 3 -2 6 -13 5 -11 0 -14 -3 -6 -6z"/>
<path d="M12214 7638 l-19 -23 23 19 c21 18 27 26 19 26 -2 0 -12 -10 -23 -22z"/>
<path d="M2465 7576 c-62 -28 -95 -85 -95 -165 0 -114 123 -197 224 -152 62
27 90 71 94 151 3 55 0 70 -20 100 -46 68 -134 97 -203 66z"/>
<path d="M12171 7544 c0 -11 3 -14 6 -6 3 7 2 16 -1 19 -3 4 -6 -2 -5 -13z"/>
<path d="M1770 6855 c-285 -79 -444 -292 -395 -527 13 -62 58 -178 70 -178 5
0 206 99 213 105 1 1 -4 26 -12 56 -43 167 51 299 214 299 85 0 169 -76 191
-175 15 -67 2 -126 -52 -242 -23 -48 -50 -113 -61 -143 -22 -62 -25 -166 -7
-233 15 -60 60 -157 72 -157 8 0 196 79 206 86 2 2 -6 33 -18 69 -36 111 -30
168 33 309 77 175 81 189 80 301 0 118 -21 181 -89 274 -48 66 -112 114 -189
144 -68 26 -186 31 -256 12z m73 -11 c-6 18 -2 19 60 12 56 -5 92 -14 167 -42
13 -4 13 -6 0 -15 -11 -7 -9 -8 10 -7 15 2 24 -2 23 -9 -2 -7 3 -10 11 -7 16
6 74 -53 117 -121 27 -43 30 -52 18 -70 -11 -17 -10 -18 3 -7 13 10 17 6 29
-35 25 -86 8 -306 -21 -288 -6 3 -7 -1 -4 -9 3 -9 -12 -54 -35 -100 -57 -119
-71 -176 -59 -251 6 -33 11 -72 12 -87 0 -14 4 -24 7 -22 8 5 22 -27 15 -33
-9 -10 -191 -81 -196 -78 -15 9 -62 148 -58 170 3 13 1 22 -3 19 -19 -12 -8
119 16 191 25 77 78 188 86 181 2 -2 5 5 6 17 1 12 6 45 13 72 20 90 -7 182
-74 244 -14 13 -24 27 -21 30 2 4 -4 8 -13 9 -125 14 -145 14 -186 -2 -115
-44 -171 -167 -132 -291 15 -46 14 -51 -1 -62 -9 -7 -25 -13 -34 -13 -10 0
-21 -5 -24 -10 -4 -6 -16 -8 -28 -5 -16 5 -18 4 -8 -3 10 -8 2 -15 -34 -31
-26 -12 -50 -21 -54 -21 -9 0 -39 67 -56 124 -17 55 -20 196 -5 196 5 0 7 7 4
15 -10 25 43 119 99 179 56 60 160 128 192 125 35 -2 46 1 40 11 -3 5 14 14
37 20 24 6 48 12 53 14 6 1 16 -4 23 -13 11 -14 11 -14 5 3z"/>
<path d="M1910 6836 c0 -10 4 -15 9 -12 5 4 12 0 14 -6 4 -8 6 -9 6 -2 1 6 -6
17 -14 24 -12 10 -15 9 -15 -4z"/>
<path d="M2003 6775 c0 -7 6 -11 14 -8 7 3 13 6 13 8 0 2 -6 5 -13 8 -8 3 -14
-1 -14 -8z"/>
<path d="M1580 6680 c0 -5 5 -10 11 -10 5 0 7 5 4 10 -3 6 -8 10 -11 10 -2 0
-4 -4 -4 -10z"/>
<path d="M1420 6571 c0 -6 4 -13 10 -16 6 -3 7 1 4 9 -7 18 -14 21 -14 7z"/>
<path d="M1955 6020 c3 -5 8 -10 11 -10 2 0 4 5 4 10 0 6 -5 10 -11 10 -5 0
-7 -4 -4 -10z"/>
<path d="M13364 6621 c-11 -5 -34 -25 -52 -45 -28 -32 -32 -44 -32 -95 0 -65
20 -100 70 -126 106 -55 222 53 190 175 -19 73 -110 119 -176 91z m82 -8 c16
-6 16 -7 -1 -13 -17 -6 -16 -8 7 -12 15 -3 25 -1 22 3 -3 5 -1 9 5 9 17 0 44
-48 37 -65 -4 -10 -2 -14 5 -9 8 5 10 -9 7 -50 -4 -45 -11 -63 -33 -86 -26
-27 -54 -34 -71 -17 -4 4 -16 -1 -27 -10 -20 -17 -20 -17 -14 0 4 10 7 22 7
27 0 4 7 7 16 6 9 0 19 6 21 14 4 13 3 13 -6 0 -10 -13 -12 -13 -21 0 -7 12
-10 12 -10 1 0 -7 -6 -11 -15 -8 -8 4 -17 2 -20 -3 -4 -6 1 -10 9 -10 9 0 16
-4 16 -10 0 -15 -9 -13 -47 11 -25 16 -33 27 -30 40 3 11 1 17 -4 13 -5 -3 -9
11 -9 30 0 20 5 36 11 36 6 0 9 7 6 15 -4 8 -2 17 4 20 5 4 12 0 15 -9 3 -8
14 -14 24 -13 10 1 16 5 14 9 -3 5 -10 6 -15 3 -5 -4 -13 4 -18 17 -6 18 -3
26 16 41 13 10 30 16 38 13 8 -3 17 -1 20 4 7 12 17 12 41 3z"/>
<path d="M13423 6565 c0 -8 4 -12 9 -9 4 3 8 9 8 15 0 5 -4 9 -8 9 -5 0 -9 -7
-9 -15z"/>
<path d="M13450 6569 c0 -5 7 -9 16 -9 14 0 15 -2 3 -17 -12 -15 -12 -16 1 -8
8 6 18 10 22 10 20 0 13 12 -12 22 -17 6 -30 7 -30 2z"/>
<path d="M13406 6488 c3 -5 10 -6 15 -3 13 9 11 12 -6 12 -8 0 -12 -4 -9 -9z"/>
<path d="M13371 6474 c0 -11 3 -14 6 -6 3 7 2 16 -1 19 -3 4 -6 -2 -5 -13z"/>
<path d="M13300 6466 c0 -2 7 -7 16 -10 8 -3 12 -2 9 4 -6 10 -25 14 -25 6z"/>
<path d="M13345 6450 c3 -5 8 -10 11 -10 2 0 4 5 4 10 0 6 -5 10 -11 10 -5 0
-7 -4 -4 -10z"/>
<path d="M13460 6436 c0 -2 7 -7 16 -10 8 -3 12 -2 9 4 -6 10 -25 14 -25 6z"/>
<path d="M13461 6388 c0 -16 2 -18 6 -8 3 8 11 18 17 22 7 5 4 8 -6 8 -12 0
-18 -7 -17 -22z"/>
<path d="M2160 5548 c-61 -31 -90 -77 -90 -142 0 -95 66 -156 168 -156 86 0
142 64 142 162 0 66 -25 110 -79 138 -52 26 -86 25 -141 -2z m111 1 c19 -6 40
-19 47 -27 6 -9 12 -12 12 -7 0 6 9 -7 20 -28 21 -38 28 -103 10 -92 -5 3 -10
1 -10 -4 0 -6 5 -11 10 -11 15 0 12 -16 -5 -34 -9 -8 -23 -12 -32 -9 -11 4
-14 3 -9 -6 5 -7 14 -10 22 -7 8 3 14 3 14 0 0 -9 -54 -49 -62 -46 -5 1 -8 -3
-8 -9 0 -19 -107 -5 -138 18 -67 49 -81 158 -28 211 23 23 28 25 37 12 8 -11
9 -9 4 9 -4 13 -3 21 2 18 4 -3 19 1 33 9 31 17 38 17 81 3z"/>
<path d="M2246 5532 c-3 -5 1 -9 9 -9 8 0 12 4 9 9 -3 4 -7 8 -9 8 -2 0 -6 -4
-9 -8z"/>
<path d="M2146 5442 c-3 -5 1 -9 9 -9 8 0 12 4 9 9 -3 4 -7 8 -9 8 -2 0 -6 -4
-9 -8z"/>
</g>
</svg>
